<svg xmlns="http://www.w3.org/2000/svg" viewBox="0 0 32 32" shape-rendering="crispEdges">
  <rect width="32" height="32" fill="#1a0f2e"/>
  <rect x="14" y="4" width="4" height="2" fill="#ffd93d"/>
  <rect x="12" y="6" width="8" height="2" fill="#ffd93d"/>
  <rect x="12" y="8" width="2" height="2" fill="#ffd93d"/>
  <rect x="14" y="8" width="4" height="2" fill="#3dd9eb"/>
  <rect x="18" y="8" width="2" height="2" fill="#ffd93d"/>
  <rect x="12" y="10" width="2" height="2" fill="#ffd93d"/>
  <rect x="14" y="10" width="4" height="2" fill="#3dd9eb"/>
  <rect x="18" y="10" width="2" height="2" fill="#ffd93d"/>
  <rect x="10" y="12" width="2" height="2" fill="#ffd93d"/>
  <rect x="12" y="12" width="2" height="2" fill="#ffd93d"/>
  <rect x="14" y="12" width="4" height="2" fill="#ffd93d"/>
  <rect x="18" y="12" width="2" height="2" fill="#ffd93d"/>
  <rect x="20" y="12" width="2" height="2" fill="#ffd93d"/>
  <rect x="12" y="14" width="8" height="2" fill="#ffd93d"/>
  <rect x="12" y="16" width="8" height="2" fill="#ffd93d"/>
  <rect x="14" y="18" width="4" height="2" fill="#ff6b9d"/>
  <rect x="12" y="20" width="8" height="2" fill="#ff6b9d"/>
  <rect x="14" y="22" width="4" height="2" fill="#ffd93d"/>
</svg>