<svg xmlns="http://www.w3.org/2000/svg" viewBox="0 0 32 32" shape-rendering="crispEdges">
  <rect width="32" height="32" fill="#1a0f2e"/>
  <rect x="4" y="3" width="1" height="1" fill="#3dd9eb"/>
  <rect x="26" y="5" width="1" height="1" fill="#e8e0d0"/>
  <rect x="8" y="8" width="1" height="1" fill="#3dd9eb"/>
  <rect x="24" y="10" width="1" height="1" fill="#ffd93d"/>
  <rect x="6" y="14" width="1" height="1" fill="#e8e0d0"/>
  <rect x="27" y="16" width="1" height="1" fill="#3dd9eb"/>
  <rect x="14" y="4" width="4" height="2" fill="#ffd93d"/>
  <rect x="12" y="6" width="8" height="2" fill="#ffd93d"/>
  <rect x="12" y="8" width="2" height="2" fill="#ffd93d"/>
  <rect x="14" y="8" width="4" height="2" fill="#3dd9eb"/>
  <rect x="18" y="8" width="2" height="2" fill="#ffd93d"/>
  <rect x="12" y="10" width="2" height="2" fill="#ffd93d"/>
  <rect x="14" y="10" width="4" height="2" fill="#3dd9eb"/>
  <rect x="18" y="10" width="2" height="2" fill="#ffd93d"/>
  <rect x="10" y="12" width="2" height="2" fill="#ffd93d"/>
  <rect x="12" y="12" width="2" height="2" fill="#ffd93d"/>
  <rect x="14" y="12" width="4" height="2" fill="#ffd93d"/>
  <rect x="18" y="12" width="2" height="2" fill="#ffd93d"/>
  <rect x="20" y="12" width="2" height="2" fill="#ffd93d"/>
  <rect x="12" y="14" width="8" height="2" fill="#ffd93d"/>
  <rect x="12" y="16" width="8" height="2" fill="#ffd93d"/>
  <rect x="14" y="18" width="4" height="2" fill="#ff6b9d"/>
  <rect x="12" y="20" width="8" height="2" fill="#ff6b9d"/>
  <rect x="14" y="22" width="4" height="2" fill="#ffd93d"/>
  <rect x="10" y="25" width="3" height="1" fill="#ffd93d"/>
  <rect x="11" y="26" width="1" height="3" fill="#ffd93d"/>
  <rect x="10" y="29" width="3" height="1" fill="#ffd93d"/>
  <rect x="18" y="25" width="4" height="1" fill="#ffd93d"/>
  <rect x="18" y="26" width="1" height="1" fill="#ffd93d"/>
  <rect x="21" y="26" width="1" height="1" fill="#ffd93d"/>
  <rect x="17" y="27" width="5" height="1" fill="#ffd93d"/>
  <rect x="18" y="28" width="1" height="1" fill="#ffd93d"/>
  <rect x="21" y="28" width="1" height="1" fill="#ffd93d"/>
  <rect x="17" y="29" width="5" height="1" fill="#ffd93d"/>
</svg>