<svg xmlns="http://www.w3.org/2000/svg" viewBox="0 0 128 128" shape-rendering="crispEdges">
  <rect width="128" height="128" fill="#1a0f2e"/>
  <rect x="16" y="12" width="4" height="4" fill="#3dd9eb"/>
  <rect x="104" y="20" width="4" height="4" fill="#e8e0d0"/>
  <rect x="32" y="32" width="4" height="4" fill="#3dd9eb"/>
  <rect x="96" y="40" width="4" height="4" fill="#ffd93d"/>
  <rect x="24" y="56" width="4" height="4" fill="#e8e0d0"/>
  <rect x="108" y="64" width="4" height="4" fill="#3dd9eb"/>
  <rect x="12" y="80" width="4" height="4" fill="#ffd93d"/>
  <rect x="56" y="16" width="16" height="8" fill="#ffd93d"/>
  <rect x="48" y="24" width="32" height="8" fill="#ffd93d"/>
  <rect x="48" y="32" width="8" height="8" fill="#ffd93d"/>
  <rect x="56" y="32" width="16" height="8" fill="#3dd9eb"/>
  <rect x="72" y="32" width="8" height="8" fill="#ffd93d"/>
  <rect x="48" y="40" width="8" height="8" fill="#ffd93d"/>
  <rect x="56" y="40" width="16" height="8" fill="#3dd9eb"/>
  <rect x="72" y="40" width="8" height="8" fill="#ffd93d"/>
  <rect x="40" y="48" width="8" height="8" fill="#ffd93d"/>
  <rect x="48" y="48" width="8" height="8" fill="#ffd93d"/>
  <rect x="56" y="48" width="16" height="8" fill="#ffd93d"/>
  <rect x="72" y="48" width="8" height="8" fill="#ffd93d"/>
  <rect x="80" y="48" width="8" height="8" fill="#ffd93d"/>
  <rect x="48" y="56" width="32" height="8" fill="#ffd93d"/>
  <rect x="48" y="64" width="32" height="8" fill="#ffd93d"/>
  <rect x="56" y="72" width="16" height="8" fill="#ff6b9d"/>
  <rect x="48" y="80" width="32" height="8" fill="#ff6b9d"/>
  <rect x="56" y="88" width="16" height="8" fill="#ffd93d"/>
  <rect x="36" y="100" width="12" height="4" fill="#ffd93d"/>
  <rect x="40" y="104" width="4" height="12" fill="#ffd93d"/>
  <rect x="36" y="116" width="12" height="4" fill="#ffd93d"/>
  <rect x="72" y="100" width="16" height="4" fill="#ffd93d"/>
  <rect x="72" y="104" width="4" height="4" fill="#ffd93d"/>
  <rect x="84" y="104" width="4" height="4" fill="#ffd93d"/>
  <rect x="68" y="108" width="20" height="4" fill="#ffd93d"/>
  <rect x="72" y="112" width="4" height="4" fill="#ffd93d"/>
  <rect x="84" y="112" width="4" height="4" fill="#ffd93d"/>
  <rect x="68" y="116" width="20" height="4" fill="#ffd93d"/>
</svg>